<?xml version="1.0" encoding="UTF-8"?>
<svg version="1.1" viewBox="0 0 1860 2048" width="1280" height="1280" xmlns="http://www.w3.org/2000/svg">
<path transform="translate(337,176)" d="m0 0 34 1 32 2 4 2 10 16 14 13 8 16 3 8 2 16v46l-2 23-8 24-9 16-8 11-5 5 3 5v221l-1 53-2 9h-6l-4-8-2-11v-11l2-28v-49l-1-43v-65l1-11 1-46 1-15 1-3-32 1 1 3-1 2 6-2 2 2v270l-2 7-5 2 4 4 9 3 33 1 8 3 10 9 7 7 7 10 8 11 11 9 5 7-1 4-3 2h-12l3 23v26l-2 7-1 46-3 17-5 16-13 24-10 18-6 12-1 10v402l-1 81-2 18-5 15-3 7h-1l2-29 1-20v-48l-2-150v-97l-1-148-3-7-6-5-3-1h-9l-4 2-1 115-1 413v166l1 34 1 11 2 3 4 1h76l42 1h5l-1-66-1-24-4-7-10-11-7-11 1-5 8-6 13-8 13-10 9-8 7-10 12-23 7-17 3-8 3 1 2 12v16l-1 42 2 20 1 2 6-1 5-10 6-11 6-10 7-12 11-13 12-10 15-11 13-5 19-4 52-2 33-1h89l117 2h16l46-1 23-1 21-2h35l5 4v154l1 55h101l30 4 11 2-2-132v-24l-5-8-10-13-4-8v-10l4-9 7-9 8-7 9-10 9-11 7-10 14-25 9-15 9-19 3-2 2 4v393l-1 1h-15l-22-1h-71l-25-3-20-1-47-1-1 8-1 7-2 28-3 24-5 24-7 19-9 14-11 8-20 10-13 9-8 8-8 11-5 8h-2l-7-11-11-12-14-11-22-15-11-9-9-10-7-11-5-10-4-16-3-38-1-22-4-5-13-7h-18l-24 2-21 1h-75l-166-1-79-1-189 4-4-4-2-18-1-23v-293l1-69 1-6v-30l-1-51v-314l2-16v-7l-2-6-5-1h-8l-10 4-1 2-1 296v97l1 91v26h-2l-5-11-7-24-1-5-1-91-2-97-1-154v-43l3-77v-22l-2-17-10-25-9-20-4-13-1-5v-7l5-1 1-2-9-3-3-12-1-8-1-26v-69l-6-2-4-4 1-5 9-6 14-7 5-5 8-9 9-14 6-7 9-4 18-6 8-3 3-3 1-3v-12l-1-15v-13l1-2v-84l-2-13v-17l1-36 3-12v-25l3-13-4-2v-9l8-7 11-3 15-2v-5h-3l-1-5 1-1-24-2h-30v4h-3l4 2v279l-5 2h-6l-2-4v-254l1-21 1-3-2-5-8-11-14-21-1-9-1-5-4-8-2-8-1-12v-48l2-15 3-6 12-16 17-17 11-13 5-5 8-2zm-27 59-2 1-1 5v73l30 2h55l10-3 1-2v-70l-2-6zm104 1-1 2-2 65v9l4 3 3 1h13l2-2 1-4v-68l-2-5-2-1zm-126 0-9 1-1 18v53l3 5 5 2h10l1-2v-76l-1-1zm-1 80-1 2 5-1zm127 1 1 4 5 3 10 2v-2l-5-3-10-2zm7 0 1 2h8l-3-2zm-113 56m-4 1m2 1m62 3m65 348v2h22v-1l-19-1zm23 1m-184 12-10 3-1 3v86l3 3 9 3 9 1 3-7 1-26 2-22 1-41-1-2-4-1zm63 0-23 1-13 2-2 6 2 2v18l-1 16-2 8-2 35 1 7 22 5 33 2h43l16-2 5-3 2-5 2-46-2-4-2-38-4-4zm108 0-15 2-4 2 1 11v28l-3 4 2 5v43l11 3h10l5-4 2-8 1-40-1-2v-39l-3-4zm-182 112m394 720-13 3-10 5-10 8-13 13-10 14-9 16-8 17-6 18-1 5v13l5 5 8 1 87 1h103l108 1h37l43-2 5-1h9l1 103 3 19 5 14 8 16 7 10 7 4 6 2h9l9-6 6-10 5-21 2-16 1-25 1-151v-28l-1-19-5-8-339-1z" fill="#BAA07F"/>
<path transform="translate(1621,1052)" d="m0 0 2 2v21l-1 53 1 106v251l-1 176-2 12-7 12-12 17-14 20-15 22-10 14-12 17-4 10 1 10 6 17 12 17 11 15 19 28 10 14 10 15 12 17 2 4-1 5-10 14-14 20-6 10-6 12-11 17-13 19-10 15-7 10-3 4h-93l-5-4-11-16-13-20-10-15-9-13-8-15-13-17-3-5v-7l6-9 11-15 9-13 12-17 10-14 10-13 14-20 10-21 3-11v-15l-8-16-19-29-36-54-8-13-4-8-2-16-1-127-1-56-1-19-5-21-9-30v-12l4-12 8-15 10-13 11-13 12-16 16-27 10-19h3l1 2v59l-1 172v34l1 96 1 15 3 9 6 9 10 11 12 20 12 18 13 19 1 3 4-1 2-4 7-8 16-20 13-21 8-13 5-14 1-5v-382l-1-29-2-10-13-36-3-12v-7l4-11 8-12 11-13 13-16 9-14 9-16 16-32 5-9zm-116 796-11 12-16 23-12 19-9 15-5 11-1 3v11l4 9 11 18 5 5 9 7 7 8 6 16 8 20 5 2 8-6 5-8 6-16 4-13 10-7 8-6 6-7 7-11 3-10v-10l-11-23-13-24-10-14-13-18-5-6z" fill="#BAA07F"/>
<path transform="translate(337,176)" d="m0 0 34 1 32 2 4 2 10 16 14 13 8 16 3 8 2 16v46l-2 23-8 24-9 16-8 11-5 5 3 5v221l-1 53-2 9h-6l-4-8-2-11v-11l2-28v-49l-1-43v-65l1-11 1-46 1-15 1-3-32 1 1 3-1 2 6-2 2 2v270l-2 7-5 2 4 4 9 3 33 1 8 3 10 9 7 7 7 10 8 11 11 9 5 7-1 4-3 2h-12l3 23v26l-2 7-1 46-3 17-5 16-13 24-10 18-6 12-1 10v402l-1 81-2 18-5 15-3 7h-1l2-29 1-20v-48l-2-150v-97l-1-148-3-7-6-5-3-1h-9l-4 2-1 115-1 413v207l-5 2-2-1v-2l-4-1-4-3-16-2-12 2-3 1-3-1v-7l5-9 5-3h10l4 2 10 1 3-1 1-3v-37l1-7v-29l-9 1-2 4h-2l-1 4-4 4-3-1-1-2v-25h-4l-8 7-4 1-4-2-1-5 4-8 4-5h2l1-3 7-1 2 1v2l8-2 4-5 10-5 1-13v-19l-1-19v-34l-4-4h-7l-5 1-16-7-2-5 2-6 15-1 9-1 5-3 3-1 1-25v-34l-1-9-3-5-9-2-15 1-5 2-7-1-1-5 6-8 7-4h7l7 1h13l1-9v-19l2-26v-15l-2-12-5 2-7 8-5 5h-3l-2-6v-9l1-10-6 2-5 3-3 3h-7l-2-3 1-9 4-5h2l1-3h2l3-3h6l4 1 4-2 5-5 8-3 3-1 1-20v-61l-3-7-18-2-6-4-4-2v-4h-2l1-7 6-1h14l6-1 5-7 1-19v-21l-1-27-5-3-12-1-11 1-9 2-2-2v-7l5-5 5-4 6-1 11 1h11l2-4v-15l2-42v-21l3-5 1-2h2l1-7-11-2-4 1v11h2l1 5-4 6-4 4-3 5-4 3h-3l-2-13 2-10v-9h-2l-2 4-3 1-2 5-6 5-5 5-3 1v-2l-3-1v-2l-5-1h-8l-10 4-1 2-1 296v97l1 91v26h-2l-5-11-7-24-1-5-1-91-2-97-1-154v-43l3-77v-22l-2-17-10-25-9-20-4-13-1-5v-7l5-1 1-2-9-3-3-12-1-8-1-26v-69l-6-2-4-4 1-5 9-6 14-7 5-5 8-9 9-14 6-7 9-4 18-6 8-3 3-3 1-3v-12l-1-15v-13l1-2v-84l-2-13v-17l1-36 3-12v-25l3-13-4-2v-9l8-7 11-3 15-2v-5h-3l-1-5 1-1-24-2h-30v4h-3l4 2v279l-5 2h-6l-2-4v-254l1-21 1-3-2-5-8-11-14-21-1-9-1-5-4-8-2-8-1-12v-48l2-15 3-6 12-16 17-17 11-13 5-5 8-2zm-27 59-2 1-1 5v73l30 2h55l10-3 1-2v-70l-2-6zm104 1-1 2-2 65v9l4 3 3 1h13l2-2 1-4v-68l-2-5-2-1zm-126 0-9 1-1 18v53l3 5 5 2h10l1-2v-76l-1-1zm-1 80-1 2 5-1zm127 1 1 4 5 3 10 2v-2l-5-3-10-2zm7 0 1 2h8l-3-2zm-113 56m-4 1m2 1m62 3m65 348v2h22v-1l-19-1zm23 1m-184 12-10 3-1 3v86l3 3 9 3 9 1 3-7 1-26 2-22 1-41-1-2-4-1zm63 0-23 1-13 2-2 6 2 2v18l-1 16-2 8-2 35 1 7 22 5 33 2h43l16-2 5-3 2-5 2-46-2-4-2-38-4-4zm108 0-15 2-4 2 1 11v28l-3 4 2 5v43l11 3h10l5-4 2-8 1-40-1-2v-39l-3-4z" fill="#C6B9A8"/>
<path transform="translate(800,714)" d="m0 0h6l1 3-9 24-4 14-1 6v14l3 16 4 5 11 5 16 3 2 1-1 5-8 14-1 8 3 15 4 15 3 21 17 4 20 6 24 10 17 8 11 7 11 8 10 9 8 7 8 8 7 8 10 11 12 16 14 21 15 26 10 17 13 30 15 40 12 33 10 33 7 30 8 42 7 49 5 45 2 35 1 32-1 11-2 1-12 1-110 1h-268l-82-2h-102l-4-1-3-7-1-5v-21l3-44 9-80 4-22 14-58 16-49 9-25 10-23 12-25 8-16 10-19 6-12 21-31 11-15 8-10 28-28 11-9 15-12 13-8 19-9 16-5 28-5 7-3 4-19 3-21v-15l-3-8-11-12-7-12-6-18-1-5v-13l4-21 6-16 7-10 4-3zm-6 208-15 3-26 8-21 11-18 12-14 11-13 12-13 13-11 14-14 19-14 22-15 26-8 15-11 24-9 24-17 50-9 32-9 39-5 30-5 40-2 24v48l2 5 7 2h51l7-1h12l8 2 19 1 110 2h246l44-1 15-1 6-4 2-3v-36l-5-47-8-58-8-44-6-25-12-41-7-21-13-30-9-19-10-19-11-20-19-28-10-13-12-14-14-14-17-13-14-9-27-14-15-6-19-6-12-2z" fill="#BAA07F"/>
<path transform="translate(1749,1062)" d="m0 0 4 1 8 11 13 22 10 15 23 34 11 17 12 20 1 4-7 8-13 12-5 6-1 3-1 252v305l-2 8-5 2-41 4h-6l-2-2-1-6-1-263-2-161v-54l1-54 1-32v-142z" fill="#BAA07F"/>
<path transform="translate(337,176)" d="m0 0 34 1 32 2 4 2 10 16 14 13 8 16 3 8 2 16v46l-2 23-8 24-9 16-8 11-5 5 3 5v221l-1 53-2 9h-6l-4-8-2-11v-11l2-28v-49l-1-43v-65l1-11 1-46 1-15 1-3-32 1 1 3-1 2 6-2 2 2v270l-2 7-5 2-1 3-28 1-12-2-2-2 1-4 1-3v-12l-1-15v-13l1-2v-84l-2-13v-17l1-36 3-12v-25l3-13-4-2v-9l8-7 11-3 15-2v-5h-3l-1-5 1-1-24-2h-30v4h-3l4 2v279l-5 2h-6l-2-4v-254l1-21 1-3-2-5-8-11-14-21-1-9-1-5-4-8-2-8-1-12v-48l2-15 3-6 12-16 17-17 11-13 5-5 8-2zm-27 59-2 1-1 5v73l30 2h55l10-3 1-2v-70l-2-6zm104 1-1 2-2 65v9l4 3 3 1h13l2-2 1-4v-68l-2-5-2-1zm-126 0-9 1-1 18v53l3 5 5 2h10l1-2v-76l-1-1zm-1 80-1 2 5-1zm127 1 1 4 5 3 10 2v-2l-5-3-10-2zm7 0 1 2h8l-3-2z" fill="#BAA181"/>
<path transform="translate(110,1489)" d="m0 0 5 2 8 7 8 10 9 16 11 23 8 16 16 39 12 36 8 26 7 39 3 29 1 19v54l-2 26-3 27-4 23-6 25-8 24-8 18-9 15-9 13-7 9-18 20-13 11-16 10-14 6-21 5-20 2h-18l-23-3-7-2v-14l25-6 15-5 16-7 16-10 13-10 10-9 8-9 9-13 14-28 5-14 6-25 4-27 2-30v-46l-2-21-7-37-8-26-8-19-10-15-7-9-8-8-13-9-2-2v-12l3-13 9-19 8-16 9-24 5-13 2-12-1-11-4-15v-10z" fill="#795831"/>
<path transform="translate(446,863)" d="m0 0h3v6l-14 25-9 16-3 7-1 10v402l-1 81-2 18-5 15-3 7h-1l2-29 1-20v-48l-2-150v-97l-1-148-3-7-6-5-3-1h-9l-4 2-1 115-1 413v207l-5 2-2-1v-2l-4-1-4-3-16-2-12 2-3 1-3-1v-7l5-9 5-3h10l4 2 10 1 3-1 1-3v-37l1-7v-29l-9 1-2 4h-2l-1 4-4 4-3-1-1-2v-25h-4l-8 7-4 1-4-2-1-5 4-8 4-5h2l1-3 7-1 2 1v2l8-2 4-5 10-5 1-13v-19l-1-19v-34l-4-4h-7l-5 1-16-7-2-5 2-6 15-1 9-1 5-3 3-1 1-25v-34l-1-9-3-5-9-2-15 1-5 2-7-1-1-5 6-8 7-4h7l7 1h13l1-9v-19l2-26v-15l-2-12-5 2-7 8-5 5h-3l-2-6v-9l1-10-6 2-5 3-3 3h-7l-2-3 1-9 4-5h2l1-3h2l3-3h6l4 1 4-2 5-5 8-3 3-1 1-20v-61l-3-7-18-2-6-4-4-2v-4h-2l1-7 6-1h14l6-1 5-7 1-19v-21l-1-27-5-3-12-1-11 1-9 2-2-2v-7l5-5 5-4 6-1 11 1h11l2-4v-15l2-42v-21l3-5 1-2h2l1-7-11-2-4 1v11h2l1 5-4 6-4 4-3 5-4 3h-3l-2-13 2-10v-9h-2l-2 4-3 1-2 5-6 5-5 5-3 1v-2l-3-1v-2l-5-1h-8l-10 4-2 5-1 13-1 4-6-1v-2l-2-1v-6l-1-3 2-10 3-12 8-7 4-3h9l4 1 12-3 5-3h2v-2l4-1 5 2 2 2h4l7-8 5-2 9-1 23-1 5-9 6-6v-17h2v-2l12-5 7-2 9-3z" fill="#9A8469"/>
<path transform="translate(141,1674)" d="m0 0h12l11 2 16 2 7 3 3 7 3 20-2 17-2 10-6 8h-3l-1 4-11 4-5 1-10 4-5 4v9l12 2 4-1 10-4 9-5 7-5 4 1 2 6v35l-3 30-2 13-4 15-2 5-7 3-22 2-3 1-3 11-1 7-3 9-1 14 2 8 3-3h2l2-5 2-3h2l1-4 3-1-1-5v-6l-1-4 5-5 9 1 7 1 1 5-3 16-9 26-1 2h-2l-2 6-9 15-4 6h-2l-1 5-3 4h-2l-2 4-10 9-15 9h-2l-1 4-5 3-8 8-9 7-7 4-13 5-21 5-21 2-30 1v-8l25-6 15-5 16-7 16-10 13-10 10-9 8-9 9-13 14-28 5-14 6-25 4-27 2-30v-46l-2-21-7-37-8-26 1-5 7-13z" fill="#A27846"/>
<path transform="translate(263,855)" d="m0 0 7 1v2l2-1h9l8-1 2 4h2v2h8l7 2 8 1 16 1h31l25-1 12 1 8-1h12l13-4 8-1 5-4 6-1 1 5-3 7-3-3-8 3-9 3-7 2-10 4h-2v2h-2l1 7v10l-7 7-5 9-23 1-9 1-6 3-6 7-5-1-2-2-8-1v2l-10 5-11 2-2-1h-9l-10 9h-2l-2 12-2 10 1 9 1 3 6 1 1-17h1v390l1 91v26h-2l-5-11-7-24-1-5-1-91-2-97-1-154v-43l3-77v-22l-2-17-10-25-9-20-4-13 1-6z" fill="#BAA080"/>
<path transform="translate(1310,1404)" d="m0 0h1v378l-1 1h-15l-22-1h-71l-25-3-20-1-47-1-1 8-1 7-2 28-3 24-5 24-7 19-9 14-11 8-20 10-13 9-8 8-8 11-5 8h-2l-7-11-11-12-14-11-22-15-11-9-9-10-4-6 1-6h6l4 2h3l1-3 9-2 4-3v2h4l5 6h3l-1-3 7-9 5-1 17 1 8 3 8 2 3 2-1 3-9 4-24 2-3 2 1 5 1 9-1 6-1 1v10l5 2 12 8 9 8 6-1 7-8 5-4h2v-2l7-4 16-9 7-4 8-5 7-8 5-7 3-7 2-7 4-20 3-14 1-16 2-6v-11l-4-6-3-1 1-6 3-5 5-5 5-6 7-3 51-2 2-5 5-4h11l4 1 17-6 8-3 7-4 6-4 4-1 2 3-1 8-3 5-5 5h-2l1 6 3 1h30l20-1 17-2 5-2 4-1 1-10v-6l-2-5-6 1-2-1v-8l5-14 3-6 2-10-1-13-1-3v-13l1-6 1-9-1-9h-7l-4 3h-3l1-6 7-8 3-8h2l2-11v-19l-3-11-1-1v-8l3-10 2-18-1-37-1-18v-14l-4-12 1-9-1-4 4-7v-8l2-5 6-27z" fill="#9A8469"/>
<path transform="translate(1618,1084)" d="m0 0h3l1 61 1 89v251l-1 176-2 12-7 12-12 17-14 20-15 22-10 14-12 17-4 10 1 10 2 9-1 2-5 1-2-1-2-7-3-7v-7l-3-1 1-7 5-9 2-6 3-1 2-4 3-4 2-5 2-4 3-1 2-5 1-3 3-1 8-16h2l2-5 3-3h2l1-3h2l2-4 7-13 4-5 2-3h1v-5l-1-1h-7l-8 6-6 9-5 2-2-3v-11l2-6 7-8 7-6 2-1h7l7 2h7l2-3 1-13v-18l1-11v-28l-5 1-4 1-2 4-5 3-3-7v-16l-1-4-4 1-7 9-3 1v2l-8 1-2-4v-10l3-6 2-3h2v-3l6-4 1-2 4 1 6 3 7-1 5-5 6-5 1-7 1-34-1-10v-31l-1-7-15 1-3-3v-2l-7-1v-2l-4-1-2-2v-7l5-3 4 1h14l8-2 1-5 1-28v-35l-2-7-2-1-22-1v2l-6 3-7 3-1-9 5-8 3-3h2v-2l4-2h8l10 2 6-1 1-2 1-38 2-15v-15l-2-4h-5l-3 1-2 4-4 4-3-2-1-3v-13l1-10-5 2-3 1-1 4-5 5h-2v2l-5 2-6-3-1-1v-10h2l2-6 8-6 5-3 5 1 2 2h7l2-4 5-5 5-1 1-2v-77l-1-9-15-5v-3h-2l2-7 7-5 1-2h2l2-4 4-6 4-19z" fill="#9B856A"/>
<path transform="translate(813,902)" d="m0 0h12l10 6 13 4 17 4 8 4 10 4 7 4 10 5 17 11 6 4v2l4 1 5 4 5 2h5l3 5 1 8 5 9 3 3 6 7 7 9 6 6 5 9 9 11 5 5 4 3v2l3 1 1 7v5l10 19 2 5 4 5 2 2h3v-2l8 1v2l4 2 4 7 1 7-3 5-5 2-1 9-3 3-4-2-4-4-12-26-12-23-10-18-19-28-10-13-12-14-13-13-17-13-14-9-27-14-15-6-19-6-12-2h-32l-15 3-26 8-21 11-18 12-14 11-13 12-12 12-11 14-14 19-14 22-15 26-8 15-11 24-9 24-17 50-9 32-9 39-5 30-5 40-3 39-1 33-4 5h-4l-2-11-1-9v-24l2-13 2-12 1-11 3-24 4-13 2-12-1-15h-2l-1-2v-10l5-9 3-8 3-15 3-8 4-10 5-18 2-8 3-11 3-7 3-8 2-11 4-13 6-11 8-17 13-26 10-18 6-10 8-15 11-16 13-17 9-10 7-8 8-8h2v-2l8-7 3-1 2-4 11-8 12-9 10-7 16-8 12-5 23-5z" fill="#9A8469"/>
<path transform="translate(377,389)" d="m0 0h3l1 71v189l-2 7-5 2-1 3-28 1-12-2-2-2 1-4 1-3v-12l-1-15v-13l5-9 2-7-1-1-1-8 1-2 2-16v-3l1-10-1-3-1-7-1-1-1-18v-21l-2-14 1-10 1-7 1-9 1-14 1-5-1-3 2-5 1-7 1-20-4-1-2-5 4-1-2-1v-2h2v-2l8-2h13l9-1 1-3h2l1-3z" fill="#A27846"/>
<path transform="translate(1440,1023)" d="m0 0h2l2 6v19l-4 20-5 14 1 9 2 7v8l-2 10-1 2-5-1-12-6-5-1-7 3-7 8-3 11 1 14 4 13 8 15 9 10 10 7 8 3h23l19 2 3 3 1 5v19l-2 11-4 4-13 3h-19l-9-1h-28l-13 3-10 6-9 10-8 14-6 14h-3l-1-3v-15l4-16 7-11 11-13 8-10 9-11 3-7v-6l-12-12-7-8-10-13-9-19-4-14 1-13 4-11 6-10 8-10 9-8 17-9 26-9 4-5 4-12 3-18z" fill="#9A856A"/>
<path transform="translate(351)" d="m0 0h13l7 35 3 7 8 6 8 8 8 10 1 2v36l-1 14-3 4 2 8 3 8 2 18v5l-1 1-67 1-13 1h-10v-16l1-20v-25l-1-10v-10l3-10 7-11 14-14 6-4 3-8 5-20z" fill="#785830"/>
<path transform="translate(820,1718)" d="m0 0 5 1 1 5-3 7-3 4h-2l-1 4-3 9-5 8-3 1-2 4-3 1 1 5 4 1h40l14-1 9-1 11-1 7 2 25 1 9 2 3 4h5l7-3 4 3-1 5-1 2h-2l-1 7-3 4-9 1-6-8-13-7h-18l-24 2-21 1h-75l-166-1-79-1-189 4-3-2v-8l4-6 2-1 3-7 3-3 6-1h13l14-4h3v-2l9-3 3-3 9-5h3l1 8-2 4h-2l-2 4-3 5-5 3 1 5 9 1h33l14-1 10-2 11-1 8 2h38l23-1 9-2 7-5 7-1h11l7-3h4v-2l6-2 5-2h3l1-3 5-2 4-2 3 1-1 7-3 6-5 5-7 5 1 2 3 1h49l9-1 12-1h12l10 1 44-1 7-1 7 1v-2h4v-6l4-2 15 1 10-1 10-4 13-7 10-7 2-5 1-7 3-7z" fill="#9A8469"/>
<path transform="translate(1052,1135)" d="m0 0 3 3v2h2l4 7 8 24 7 26 9 43 7 43 6 49 3 32 2 54-1 11-2 1-12 1-110 1h-268l-82-2h-102l-3-2-1-5 4-6 9-5 6 1 8 4 16 2h508l11-5 4-7 1-7v-28l-1-13-2-19-2-7-2-6v-6l1-5v-8l-1-5-1-12-1-4 1-4h-2l1-8-2-1 1-2-1-10-3-13 1-4h-2v-5l-1-5-2-8v-6l-2-1 1-7h-2l-4-18-2-6v-3l-4 1-3 6-5-1v-2h-2l-2-5-1-18 1-6 3-5v-17l3-1z" fill="#9B856A"/>
<path transform="translate(424,678)" d="m0 0 3 3 5 1 5 4v2l4 2 4 4v2h2l5 5 7 6 5 2 9 8 3 5-1 4-1 1h-38l-3-1v2l10 1-2 1v3l9-1 6 2 1 2-1 2h-4l-1 2h-23l-10 6-4-5-4-1h-75l-23 1h-17l-7-2v-2h-2v-5l-3 1-2 5h-9l-2-6v-2l-13-2-9-3v-6l8-7 24-12 6-4 2-3h2l1-2 6-4 9-3 5 1 8-2 9 1 1 1h11l16-3 6 1 24 1 8 1 8-2 5 1 5-2h4v-2z" fill="#9B856A"/>
<path transform="translate(110,1489)" d="m0 0 5 2 8 7 8 10 9 16 11 23 8 16 16 39 12 36 8 26-1 3-8-23-4-6-2-1-1 5 4 14v7l-2 4-13-2-7-1-12-4-9-1-9 4-4 3-5-1-3-5-2-5v-3h-2l-9-11-8-7-13-3v2l-5 1-2 1v-12l3-13 9-19 8-16 9-24 5-13 2-12-1-11-4-15v-10z" fill="#A17846"/>
<path transform="translate(1824,1179)" d="m0 0 5 1 2 6-7 8-13 12-5 6-1 3-1 252v305l-2 8-5 2-41 4h-6l-2-2 1-9 4-5 14-5 13-2 4-4 4-3h2v-7l2-5 1-10 1-39-1-10-1-2h-5v3l-3 1-3 5-4-1v-2l-5-1-1-4 1-9 3-5 9-4 6-7 3-9 1-15 1-44-2-10-4-1-7 5-2 3h-2l-1 5-8 15-4 1-3-10v-11l2-14 6-8 10-9 6-2v-2l4-1 1-11 1-9 2-22-1-33-1-17-1-4-3-11-2-4 4-5 4-8 1-31-1-36-7 1-6 9-4-2-3-9v-3h2l2-4 11-8h2l2-9 1-3 1-63-1-10-9 3-2 4-3 4h-2l-2 5-6 10-4 2-2-1-1-14 2-19 4-6 13-9 7-5 1-2 1-16 5-12 7-9 7-8 11-7z" fill="#9A8469"/>
<path transform="translate(826,1536)" d="m0 0h2l-2 10-2 9 40 1h57l16-1h17l7-1h7l7 1 5-1v-2h2l1-3 3-1 21-1 5 1h15l1-2 2 2v5l2 2 8 2 11 6 1 2v10l-2 2-4-1-2-3-339-1h-50l-13 3-10 5-10 8-12 12-10 14-9 16-8 17-8 24-2 9-2 1-4-1v-2l-4-2-4-1-9 2-7 6-3 7-5-1-4-8v-7l4-4 5-3 11-8 13-1 3-1 3-10 4-10 6-12h2l1-6 6-9 10-16 7-10 6-7 13-8 11-6 12-4 14-2 31-2h46l11-1h22l5-5 6-2 12-1 9 1 9 2 5-1 1-3h2l2-4z" fill="#9A8469"/>
<path transform="translate(1623,1928)" d="m0 0h2l-1 5-11 15-11 16-10 19-11 17-13 19-10 15-7 10-3 4h-93l-5-4-11-16-13-20-10-15-9-13-1-6h22l13-2 5-1 14 3 9 3 6 4 6 10 4 11 2 6 5 6 2 14 2 7 8-3 8 1 2 1h9l1-5 10-15 3-5h2l2-6h2v-2h2l2-4 2-6h2l1-5 3-1 3-5 6-4 10 2v2l5-3 11-8 5-6 4-8 5-7 4-3v-2l4-1v-2l2-2 3-6h2z" fill="#A17846"/>
<path transform="translate(142,1763)" d="m0 0h2l3 9 3 7 1 5v13l1 13 2 12v8l1 13v9l-2 9-2 2-6 29v16l2 8 3-3h2l2-5 2-3h2l1-4 3-1-1-5v-6l-1-4 5-5 9 1 7 1 1 5-3 16-9 26-1 2h-2l-2 6-9 15-4 6h-2l-1 5-3 4h-2l-2 4-10 9-15 9h-2l-1 4-5 3-8 8-9 7-7 4-13 5-21 5-21 2-30 1v-8l25-6 15-5 16-7 16-10 13-10 10-9 8-9 9-13 14-28 5-14 6-25 4-27 2-30v-46z" fill="#A27846"/>
<path transform="translate(1200,1120)" d="m0 0 5 2 4 5 14 22 9 12 8 14 3 9-1 8-10 14-12 17-12 19-8 12-4-1-7-7-18-27-12-19-3-8 1-8 7-12 9-10 9-14 9-19 6-8z" fill="#BAA07F"/>
<path transform="translate(799,821)" d="m0 0h5l1 5 2 8 1 2 2 18-1 7-2 1-3 21-3 11-7 6h-2l-1 2-10 4-12 3-11 2-15 6-2 2-7 3-10 6-5 4-5 3-7 6-11 9-3 4-3 1-2 3-4 4-4 2-2 4-8 6h-2l-2 6-9 8-10 14-3 3-7 10h-2l-1 5-4 7-7 14-3 3-5 9-6 9-3 7-6 11-10 21-12 24-3 12-1 5-2 7-2 5-5 15-3 10-3 12-2 4-2 7h-2v7l-4 12-1 7-4 10-3 4-3 9-1 7 4 8 2 11-2 6-2 9-1 1-2 13-2 9-1 16-2 12-2 3-2 11v8l-2 1v7l-1 7v21l-1 4h2l1 4-4 7h-2v6h-1l-1-5v-21l3-44 9-80 4-22 14-58 16-49 9-25 10-23 12-25 8-16 10-19 6-12 21-31 11-15 8-10 28-28 11-9 15-12 13-8 19-9 16-5 28-5 7-3 4-19 3-21v-15l-3-8-2-3z" fill="#C6B9A8"/>
<path transform="translate(745,1024)" d="m0 0h3l-1 6-6 10-10 13-9 15-14 25-12 24-14 32-14 37-9 27-13 49-8 39-5 39-2 16-5 10-6 5-7-1-3-3-2-10 1-17 8-49 7-27 10-32 15-41 13-30 17-35 12-23 10-18 13-21 14-21 13-16z" fill="#BCA587"/>
<path transform="translate(1396,1146)" d="m0 0 2 4 4 11 7 13 9 10 10 7 8 3h23l19 2 3 3 1 5v19l-2 11-4 4-13 3h-19l-9-1h-28l-13 3-10 6-9 10-8 14-6 14h-3l-1-3v-15l4-16 7-11 11-13 8-10 9-11 3-7v-6l-7-7v-1l6-1 3-9-4-10-1-4z" fill="#BAA07F"/>
<path transform="translate(1445,1297)" d="m0 0h3l1 3v33l-1 172v34l1 96 1 15 3 9-1 6-5 2-6 1-3-5v-46l-1-12v-22l-2-12v-8l-5-2-10 3h-8l-9-3-2-1v-2h-2v-6l4-4 5-2 19-1 6-1 2-16 1-11 2-49v-30l-5-1-7 6-5 4-14 5h-8l-5-7v-7l7-2 11-3 5-4 7-4 5-5 2-3 4-17 2-5 2-12v-15l-1-3 1-2h-2v-2l-9-1-9-2-2-1v-3l2-1h11l3-1 2-5v-6l2-9 4-19 3-14z" fill="#9B856A"/>
<path transform="translate(377,389)" d="m0 0h3l1 71v189l-2 7-14 1h-11l-12-1-5-4v-6l3-5 6-4 3-4v-14l-1-1h-12l-1-7 5-7h2v-2l6-2 10-2 6-4h2l2-5v-80l-2-4h-9l-4 1-2-4-5-5-3-4 2-6 2-3 11-1 8-3 2-4 1-43v-25l-1-3-5-1-24-1v-2h2v-2l8-2h13l9-1 1-3h2l1-3z" fill="#785830"/>
<path transform="translate(403,942)" d="m0 0h10l5 2 3-1 1 7v379l-1 81-2 18-5 15-3 7h-1l2-29 1-20v-48l-2-150v-97l-1-148-3-7-6-5-2-1v-2z" fill="#A08B71"/>
<path transform="translate(783,1556)" d="m0 0h9l13 4 17 2 64 1h15l30-1 21-1 13-1 18-2 5-1 8-1h7l10 3 16 2 10 3 8 4-1 4h-391l-13 3-10 5-10 8-12 12-10 14-9 16-8 17-2 5-3 1-1-1 1-9 10-20h2l1-5 4-7 2-4 2-1 5-9 3-1 2-5h2l1-4h2l2-4 5-4 3-3 12-6h3l1-2 18-4 33-1h15l30-1 23-2h12l6-3z" fill="#6D6458"/>
<path transform="translate(283,216)" d="m0 0 2 4 3 2v2h-2l-1 3-3 1v5l14 1 4 5 1 8 1 10-1 22-1 12v20l-1 8v3l7 2 8-1 6-2 1-4-6-1v5l-3 2-3-1 2-5v-3h16l10 1h55l10-2 1-72h1l1 5 1 50 1 14-1 10 3 2 3-2-2-7v-24l1-45 1-6h1v27l-1 47 6 3h13l2-1-3 10-15-5 2 3 11 3 4 1-5 4-14 7-15 1h-105l-9-3-6 2-2 1v-9l-5-10-2-8-1-12v-48l2-15 3-6zm5 20-9 1-1 18v53l3 5 5 2h10l1-2v-76l-1-1zm-1 80-1 2 5-1zm134 1 1 2h8l-3-2z" fill="#C5B8A7"/>
<path transform="translate(363,1769)" d="m0 0 6 1 7 2h68l116-1 11-1 14 2h67l16-1h94l13-2h5l3 2 12 1h116l5 3 1 6-5 1-8-4h-18l-24 2-21 1h-75l-166-1-79-1-143 3h-45l-2-1 1-4 5-3 15-3 1-1z" fill="#71675B"/>
<path transform="translate(414,694)" d="m0 0 8 4v2l7 1 20 6 16 7 5 4v5h-2v2l-8 1-24 1h-47l-36-1h-76l-19-1-4-5 4-2v-2l10-6 21-7h35l10 2 13-2h50l11-6 5-2z" fill="#785830"/>
<path transform="translate(564,1477)" d="m0 0 3 1 2 12v16l-1 42v37l-2 10-3 5-4-2-1-3-1-24-6 2-4 6-5 4-13 17-3 1-4-3-2-7-8 3-6-2-7-8-8-12 1-5 8-6 13-8 13-10 9-8 7-10 12-23 7-17z" fill="#9A8469"/>
<path transform="translate(330,656)" d="m0 0 3 3 12 2 30-1 8 4 4 1 33 1 8 3 10 9 7 7 7 10 8 11 1 2-4-2-10-8v-2h-2l-6-7-2-1v-2l-12-6h-4-5v2l-10 3-6-1-8 2-7-1-27-1-2-1-16 3h-11l-4-1-8-1-7 2-5-1-10 4-5 4-7 6-12 7-9 4-10 6-3 3v5l8 3 13 3 2 5v2h9l2-6 3 1 1 3-1 2h2v2l12 1 3 2-4 1-1 5 2 2v18l-1 16-1 3h-2v2l-4-1-3-9-1-39h-16l-10 3-4 3-2-3 1-2h-2l-2-6v-6l-5-1-5-3-1-6 8-6 16-8 5-5 8-9 9-14 6-7 9-4 18-6 8-3z" fill="#BAA080"/>
<path transform="translate(1099,1374)" d="m0 0 2 2 1 10 1 32-1 11-2 1-12 1-110 1h-268l-46-1-11-1v-2l-3-1 1-2 10-1 39-1h371l9-2 6-4h3l2-4 4-11 2-15-1-9 1-3z" fill="#766B5D"/>
<path transform="translate(1073,1358)" d="m0 0h2l3 21 2 11 2 1 2 13-3 7-5 4-2 1h-349l-46 1h-26l-23-1h-18v1h-43l-16-3-4-2-2-3v-5l7 1h51l7-1h12l8 2 19 1 110 2h246l44-1 15-1 5-3 2-3z" fill="#C6B9A8"/>
<path transform="translate(313,115)" d="m0 0 6 4 76 1 1 8 4 10 2 18v5l-1 1-67 1-13 1h-10v-16z" fill="#BAA07F"/>
<path transform="translate(576,1685)" d="m0 0 4 2 8 1 87 1h103l108 1h37l43-2 5-1h9l1 5-5 1-7 5h-27l-28 2-21-1h-35l-14-4h-2l-1 3-10 2h-24l-10-1-43-1-8-1-9 2h-30l-17 1-7-1-23 2-2-1h-11l-3-1v-2l-11 1-20 2-9 1-11-1-4-1v-2h-5l-5-5-1-3-2-1z" fill="#C7BAA9"/>
<path transform="translate(408,382)" d="m0 0 5 1 1 3 1 30v185l-1 53-2 9h-6l-4-8-2-11v-11l2-28v-49l-1-43v-65l1-11 1-46h2l1-8z" fill="#9D886D"/>
<path transform="translate(1508,1830)" d="m0 0h2v2l5 2 3 5v3h3l2 4v3l4 2 9 12 2 6h2v3h2l3 5 4 5 5 5h9l1-3 5-2 2-4 10-7 5-1 5 8-1 6-7 11-2 1-3 5-7 6-5 10h-2l-2 5-4-1-3-3-18-34-15-20-8-11-3-4h-6l-10 11-16 23-12 19-9 15-5 11-2 4-1 7-5 1-4-2-1-7 1-11h2v-5l5-8h2l2-6 3-7 2-1 2-4h2l1-4 5-7 2-4 7-10 6-8 3-5 2-5h2l2-4 6-8 3-2z" fill="#9A8469"/>
<path transform="translate(351)" d="m0 0h13l7 35 3 7 8 6 8 8 8 10 1 2v33h-1l-1-29-8-1-1 4-2 3-5 1-8-1-21-6-6-1-6 3-6 5h-2l-2 4-4 11-4 6-7 9-2 2-2-18v-10l3-10 7-11 14-14 6-4 3-8 5-20z" fill="#9A8469"/>
<path transform="translate(803,911)" d="m0 0h20l14 5 15 3 10 3 13 5 3 3 10 4 12 7 5 5 7 3v2l6 2v2h2l1 4 6 2v2l5 1 7 8-1 6-4-1-10-9-17-12-17-10-27-13-25-8-12-2h-32l-15 3-26 8-21 11-18 12-14 11-13 12-12 12-11 14-14 19-7 11h-4l-2 5-3 1-1-8 2-4h2l1-4 8-13h2l2-5 10-12 5-7h2l2-4 2-3h2l1-3 6-5 5-6 6-5 20-16 6-5 5-3h2v-2l4-3h3v-2l11-5 17-7 2-1 16-2 12-3z" fill="#70665A"/>
<path transform="translate(305,388)" d="m0 0 5 1 1 7 1 262-5 2h-6l-2-4v-16l1-7 1-61v-29l-1-60v-65l1-15 3-14z" fill="#9B856A"/>
<path transform="translate(1310,1418)" d="m0 0h1v364l-1 1h-15l-22-1h-71l-25-3-53-2-9-1 1-2 13-2 55-1 11-1 6 2 10 1h55l27-2 9-3 5-5 1-13-1-27-1-5-1-9 1-10-1-6v-19l2-16-1-5-1-19 1-12v-26l-2-17 3-28v-50l1-11-1-24v-16l1-29z" fill="#70665A"/>
<path transform="translate(1068,1478)" d="m0 0h35l4 4-14 4h-13l-7 1-15-1-10 1-5 1-10 1-6-1h-15l-29-1h-81l-7 1-16-1-19 1-5-2h-7l-9 2-17 2h-14l-8-1-20-1h-21l-12 1h-15l-16-2h-49v2l-7 2-9 1h-4v2l-6 1-2-3 13-5 19-4 52-2 33-1h89l117 2h16l46-1 23-1z" fill="#C6B9A8"/>
<path transform="translate(1440,1023)" d="m0 0h2l2 6v19l-2 11-3-2-6 7-8 15-2 10-4 3-9 1-9 5-5 6h-2v2h-2l-2 5-1 2-9 5h-3l-1 9v8l3 1 1 4-1 3-5-1-3-2-4 7v7l-3-4-6-16-1-5 1-13 4-11 6-10 8-10 9-8 17-9 26-9 4-5 4-12 3-18z" fill="#BAA07F"/>
<path transform="translate(143,1771)" d="m0 0 2 2 2 17 1 23 2 1v22l-1 6-3 23-2 19-2 6-3 27-5 11-1 4h-2v5l-3 3-10 21-6 9h-2l-2 5-5 8h-2l-2 4-4 5h-2v2l-8 7h-2l-1 3-9 6-16 8-14 4-12 1h-31v-3l25-6 15-5 16-7 16-10 13-10 10-9 8-9 9-13 14-28 5-14 6-25 4-27 2-30z" fill="#BAA180"/>
<path transform="translate(416,368)" d="m0 0 2 1-5 5v2l2 4v36h-1l-1-33h-7l-1 8h-1v-15l1-3-32 1 1 3-1 2 6-2 2 2v81h-1v-71l-5 2-4 5-11 2h-13l-6 1v2l-1 1 1 2-3 1 2 4 4 2-1 23-2 7-1 4 1 3-1 9-1 13-1 9-2 10 1 12 1 10v23l1 10 2 3v6l1 6-1 6v3l-1 11-1 5-1 3 1 7 1 2-4 9-2 2-1-52v-30l-2-13v-17l1-36 3-12v-25l3-13-4-2v-9l8-7 11-3 15-2v-5h-3l-1-5 1-1-24-2h-30v4h-3l4 2v50h-1l-1-33-1-7h-4l-3 14-1 17v74l1 54v31l-1 54h-1l-1-81v-150l1-21 1-3-2-5-2-4 10 1 66 1h37z" fill="#A0896D"/>
<path transform="translate(427,339)" d="m0 0h5l-1 7-4 10-8 12-9 4h-37l-66-1-11-2-7-10v-7l5-1 15 1h98l8-3 8-7z" fill="#795830"/>
<path transform="translate(320,198)" d="m0 0h50l33 1 13 4 12 7v2h2l-1 4-4 2h-123l-8-1-1-5 4-5 9-6 4-2z" fill="#795830"/>
<path transform="translate(1475,1210)" d="m0 0 4 1v2h2v17l-2 5-3 3-13 3h-19l-9-1h-28l-13 3-10 6-9 10-8 14-2 4-4 2-3-5 2-9 4-10 6-9 10-10 11-7 13-5 14-4 16-2h16l13 4 4-1z" fill="#70665A"/>
<path transform="translate(1105,1489)" d="m0 0h2l1 8v28l-1 156-1 4-5 1-7-3-1-4v-7l4-11v-10l-1-6h-6l-5 3-2 3h-2l-2 4h-3l1-5 6-7 4-7 3-3 3-5 4-10 1-16-1-8h-2l-4-6-1-7 1-3h2l2-9 2-8v-37l-2-13 2-10 4-5z" fill="#9A8469"/>
<path transform="translate(686,1122)" d="m0 0h2l1 5-5 13-2 9-14 37-9 27-13 49-8 39-5 39-2 16-5 10-5 1-5-2-2-2 1-7 3-4 3-10 4-23 1-1 3-20 4-20 3-12 3-15 7-25 7-26 9-27 12-29 9-20z" fill="#9C866B"/>
<path transform="translate(405,948)" d="m0 0 4 2 7 8 2 7 1 36-1 16v14l1 6-1 15-1 9v40l1 20v30l-2 32v30l1 9v10l1 14v37l-1 22-1 33 2 20-1 12-1 31-2 19h-1v-67l-2-150v-97l-1-148-3-7z" fill="#BBA385"/>
<path transform="translate(1823,1183)" d="m0 0 7 1 1 2-7 8-13 12-5 6-1 3-1 252-1 96-1 21h-1l-2-12-1-19v-199l-7 1-1-3 5-6 2-1 1-19 1-51-1-24-1-1v-32l3-13 7-9 5-4 8-8z" fill="#766B5E"/>
<path transform="translate(1623,1918)" d="m0 0 5 2 1 5-3 5-1-2-4 2-3 3-3 4-1 3h-2l1 3-3 1-2-1 1 3-5 2-2 4-3 5-2 1-2 8-7 6-10 7-4 1v-2h-5l-5-1-6 4-3 5h-3l-1 5h-2l-1 6-3 4h-2v2h-2l-2 6h-2l-2 5-3 5-6 8-3 7-2 1h-7l-7-2-6 1-5 1-3-7-2-14-5-6-2-6-6-15-4-6-6-4-15-4-9-1-7 2-15 1-16-1-1 3-6-12-10-13-1-6 1-2h8l4 5v2l3 1 5 9 9 10h14l8-2 6-2 14 4 12 4 6 3 8 8 4 9 4 10 3 12 3 9 6 2h12l1-3 2-1 4-7 6-9 3-4 3-6 4-4h2l1-4 6-9h2v-2l8-5 3-1h12l6-2 4-6 3-8 5-8 5-5h2l2-4 4-6h2l2-4 9-10z" fill="#9A8469"/>
<path transform="translate(564,1477)" d="m0 0 3 1 2 12v16l-4-1-3 6-4 12-5 12v8l2 5-3 5-8 3-16 12-3 5-1 9-2 4-5-2-1-8h-11l-5 2v6l-4-4-5-8 1-5 8-6 13-8 13-10 9-8 7-10 12-23 7-17z" fill="#BAA07F"/>
<path transform="translate(1623,1928)" d="m0 0h2l-1 5-11 15-11 16-10 19-11 17-13 19-10 15-7 10-3 4h-22l-1-2h2v-2l3-3h2l3-9 2-5 5-5 8-10 6-10 2-5 8-12 5-2 3-3 5-3 11-8 5-6 4-8 5-7 4-3v-2l4-1v-2l2-2 3-6h2z" fill="#795831"/>
<path transform="translate(142,1763)" d="m0 0h2l3 9 3 7 1 5v13l1 13 2 12v8l1 13v9l-2 9-2 2-6 29v10l-2 3-2 17-2 5-6 17-4 10-5 10-3 5-5 3-4 6h-2l-2 6-8 14-5 5-2 3 8-6v4l-9 7-7 4-13 5-21 5-21 2-30 1v-5l31-1 16-2 15-5 16-9 12-11 3-1v-2l10-10 5-9 2-3h2l2-5 5-8 8-17 3-4 1-4h2v-5l5-10 3-27 3-12 2-18 2-22 1-2v-22l-2-5-2-31-3-11z" fill="#9A8468"/>
<path transform="translate(1235,1181)" d="m0 0h5l3 3-1 8-10 14-12 17-12 19-8 12-4-1-7-7-18-27-9-14 1-7 8 1v2h2v2l7 1 2 2 3 4 3 6 1 5 3 5v2l8-2 2-3 5-1 1-5 1-2h2l1-4 7-11 5-9h2l2-4 4-5z" fill="#9B856A"/>
<path transform="translate(138,1538)" d="m0 0 5 5-2 5h2l1 6 4 2 3-2 5 5 6 15 1 1v9l-7 6-8 8-3-1-3-9 1-9 3-8-1-6h-2l-1 2h-2l-2 5-3 5h-2l-2 4-3 4h-3l-2 4h-2l-2 4-3 5-3 8-5 1-1-2 1-2-2-1 2-8 2-14 4-13 9-10 5-4 5-1 1-3 3-1-2-4v-5z" fill="#785830"/>
<path transform="translate(110,1489)" d="m0 0 5 2 8 7 8 10 8 14-1 2-4-4-8-2-3 14-3 10-4 8-3 7-5 12-2 11-2 6-3 12-2 7-3 12-2 6-3 3-11 2-2 2 1-13 3-10 9-17 7-15 9-24 5-13 2-12-1-11-4-15v-10z" fill="#BAA180"/>
<path transform="translate(826,875)" d="m0 0h2l1 8 17 4 20 6 24 10 17 8 11 7 11 8 10 9 8 7 8 8 7 8 10 11 5 7h-3l-1-3-4-1v-2l-9-3 1-3-3 1-4-5-3-7-1-5h-2l-1-4h-5l-5-2-4-4-4-2v-2l-8-2-4-4-7-4-9-5-14-3v2l-15-5-3-2-5-1-1-3-10-3-14-2v-2h-2l-3-7-2-1-2-8-3-1z" fill="#C6B9A8"/>
<path transform="translate(1406,1974)" d="m0 0h9l13 9h2l2 3 3 1 2 10 2 6 4 5 1 3 6 4 4 8 5 1 1-4h2l-1-3 3-7 4-8 5-3 1 14-2 6h-2l-1 9-2 5-4 1 4 14h-12l-5-4-11-16-13-20-10-15-9-13z" fill="#795830"/>
<path transform="translate(1401,1665)" d="m0 0h10l8 4 4 1 1 5-10 4v3l2 6 12 18 3 5 5 3h6l5 5 3 7-1 2v7l7 13 2 5 2 1 1 3 4 4 4 9 1 9-1 2h-4l-8-14-52-78-8-13-2-3 1-7z" fill="#9B856A"/>
<path transform="translate(337,176)" d="m0 0 34 1 32 2 4 2 10 16 1 2-4-2-7-3-9-1-24 1-13-1h-40l-16 5-3 1 2-4 8-10 6-6 8-2z" fill="#BAA07F"/>
<path transform="translate(979,1700)" d="m0 0 2 3 1 88 3 24-1 7-5-2-2-4v-3h-2l-2-8h-2l-1-5h-2v-2l-3-1-1-3 5-14v-6l-7-8-3-5-2-1 1-4 10-3 1-1 1-14v-22l3-9 2-5z" fill="#9B8469"/>
<path transform="translate(414,686)" d="m0 0 5 1v2l4 1v3l4 2 3 2-3 1-4-1 1 3h-2v-2l-6-2h-3l-16 8h-50l-15 2-8-2h-21l-9-1-3-3 17-5 6-3 3-2h7l3 1 1 2 3 1 2 3 5-2 6-5 6-1h16l8 2 13 1 12-2z" fill="#A27846"/>
<path transform="translate(126,1518)" d="m0 0 8 1 6 5 11 23 8 16 4 9-1 3-6-13-3-6-3-1-3 2-4-3v-6h-2l1-6-4-3h-3l3 10-4 1-3 3-6 3-8 8-4 8-4 18h-2l-4 15-2 17v5l-4 4 1 2-7-1-6-1v2l-5 1-2 1 1-7 9-3 4-1 2-4 3-12 1-5 4-12 5-20 3-10 4-7 4-10 3-9 4-15z" fill="#9A8469"/>
<path transform="translate(668,1148)" d="m0 0 1 4-4 10v3h-2l-1 6-6 13-3 11-3 9-4 13-4 16-4 13-1 6h-2l-1 10-2 9-3 13-2 8-2 11-3 13-3 12-2 9-3 13-3 6-1 8h-1l-1-7 1-17 8-49 7-27 10-32 15-41 13-30z" fill="#C6B9A9"/>
<path transform="translate(297,1073)" d="m0 0 3 1v286l-2 1-1-7-1-5 1-5-2-9v-3l1-10v-23l-2-16-1-12 1-2v-8l1-7v-16l1-7-1-12 1-8-1-18 1-9-1-13v-88z" fill="#9A8469"/>
<path transform="translate(416,368)" d="m0 0 2 1-5 5v2l2 4v36h-1l-1-33h-7l-1 8h-1v-15l1-3-32 1 1 3-1 2 6-2 2 2v81h-1v-76l-5 2-4 3-4 1h-19v-1l20-3v-5h-3l-1-5 1-1-24-2h-30v4h-3l4 2v50h-1l-1-33-1-7h-4l-3 14-1 17v74l1 54v31l-1 54h-1l-1-81v-150l1-21 1-3-2-5-2-4 10 1 66 1h37z" fill="#BBA282"/>
<path transform="translate(321,192)" d="m0 0h40l18 1 20-1 11 2 5 3 9 6 7 7 3 5v3l-8 3h-113l-24-2-3-4 12-12 3-4 13-5zm-1 6-10 1-10 6-7 7 1 5 8 1h123l5-3v-3h-2l-1-3-16-8-8-2-42-1z" fill="#9A8469"/>
<path transform="translate(393,140)" d="m0 0 4 1 2 5v10l-4 4-2 1h-51l-24-1-3-4 2-6 5-3 8-1 52-1 7-2z" fill="#6C6256"/>
<path transform="translate(1446,1271)" d="m0 0 3 3v13l-3-3-5 12-2 10-3 1-3 7-5 7-1 3h-2l-2 6-1 2h-2v2l-4 1-1 5-11 9-2 3-1 10-8 11-3 1-2 6h-2l-2 5-5 5-5 2 1-9 5-12 6-11 10-13 11-13 12-16 16-27 10-19z" fill="#C6BAA9"/>
<path transform="translate(1308,1385)" d="m0 0 2 1 1 3v7h-2l-2 6-3 8-5 16-4 2-4 6h-2l-2 4-6 9-3 1-1 5-4 5-3 3-5 9-3 5h-2l-1 6-3 3-4 8h-2v5l-10 10-5 3-4 5-1-3v-10l4-9 7-9 8-7 9-10 9-11 7-10 14-25 9-15 9-19z" fill="#C6B9A9"/>
<path transform="translate(273,708)" d="m0 0h8l-3 2-10 5-2 4 3 1 37 1h136l19-1 1-2-14-8-3-1v-1l9 1 12 6 4 3v5h-2v2l-8 1-24 1h-47l-36-1h-76l-19-1-4-5 4-2v-2l10-6z" fill="#6C6357"/>
<path transform="translate(320,198)" d="m0 0h50l33 1 13 4 12 7v2h2l-1 4-4 2h-123l-8-1-1-5 4-5 9-6 4-2zm5 3-15 2-6 3-2 3 1 4 1 1 46 1h56l11-1 2-1-2-4-8-4-9-2-36-2z" fill="#6C6256"/>
<path transform="translate(351)" d="m0 0h1l4 13v11l-1 15-1 5-4 8h-2l-1 5-6 7-6 4h-2v2h-3l-2 4-8 7-2 9h-2v8l-2 6-2-1-1-10v-10l3-10 7-11 14-14 6-4 3-8 5-20z" fill="#BAA181"/>
<path transform="translate(1475,1210)" d="m0 0 4 1v2h2v17l-3-1v-4l-7-1-2 4-2 1h-12l-13-1h-11l-14 1-10 2-9 2-13 5-4 3-8 5-7 10-1 5 2 1 8-6 2 1-7 10-5 10-4 2-3-5 2-9 4-10 6-9 10-10 11-7 13-5 14-4 16-2h16l13 4 4-1z" fill="#9A8469"/>
<path transform="translate(1621,1052)" d="m0 0 2 2v21l-2-2-3 1-2 4-3 8-3 11-3 5-6 4-8 9-7 6-3 6-6 11-9 13-1 3-4 1-1 6-3 5-2 1-1 5-5 5h-4l-2 7h-1v-7l4-11 8-12 11-13 13-16 9-14 9-16 16-32 5-9z" fill="#C6BAA9"/>
<path transform="translate(427,339)" d="m0 0h5l-1 7-4 10-8 12-9 4h-37l-66-1-11-2-7-10v-7l5-1 15 1h98l8-3 8-7zm-6 11-10 4-11 1h-69l-35 1-2 2 1 5 6 4 3 1 76 1h12l19-1 8-4 5-8v-6z" fill="#6D6356"/>
<path transform="translate(1620,1657)" d="m0 0h1v13l-6 12-10 14-13 19-7 10-13 19-10 14-11 15-3 1-2-2h3l1-9 4-4 1-4 5-7 2-4 4-4 7-14 3-3 1-3h2l2-4 4-4 9-15h2l1-4 3-4h2l2-5 2-3h2v-11l3-2 2-4h2l2-5z" fill="#71675B"/>
<path transform="translate(1251,1660)" d="m0 0h1l1 17v16l-1 5h-8l-13 1-6 1h-11l-16-1h-29l-7-1-11 1-5-1-12 2-16-2v-2l-3-1v-3h-5v-1h100l30 4 11 2z" fill="#C6B9A8"/>
<path transform="translate(285,985)" d="m0 0h1v31l1 36v222l2 30v52l1 10v58l1 2v6l-2-3-2-8-1-91-2-97-1-154v-43z" fill="#C6B9A8"/>
<path transform="translate(431,332)" d="m0 0 5 2-1 7-4 8-1-3 2-7-7 2-8 8-6 3-4 1h-102l-16-1v5l-5-5-2-7 4-2 13 3 4 1 8-1h9l15 1 70-1 8-2 4-2v-2l11-6z" fill="#9A8469"/>
<path transform="translate(1310,1418)" d="m0 0h1v188l-1 123h-1l-1-69-2-7-1-19 1-12v-26l-2-17 3-28v-50l1-11-1-24v-16l1-29z" fill="#7C7163"/>
<path transform="translate(388,1690)" d="m0 0h79l42 1h5l-2 5-9 3-6 1h-9l-9-1h-35l-9-2-1-1h-6l-5 2-7-1-7 2h-9l-7-3v-2h-2v-2h-3z" fill="#C6B9A8"/>
<path transform="translate(416,82)" d="m0 0h5l6 7 2 5 3 20 1 10-4 15-3 5-4 1-3-2-1-3-2-16-3-7v-26z" fill="#796E5F"/>
<path transform="translate(672,1146)" d="m0 0 1 2-10 25-9 27-9 33-7 26-3 17-3 13-4 20-1 9-2 7-4 20-3 8-3 5v5l2 2 7 2-4 4-7-1-3-3v-11l3-6 6-26 3-11 2-10 3-17 3-9 1-6 3-13 1-6h2l1-10 6-19 3-12 4-14 3-10 5-12 5-11 3-10 2-6z" fill="#BAA07F"/>
<path transform="translate(268,867)" d="m0 0 9 2 9 3h2l3 8 2 18v14l-2 7-4 1-3-5-2-6h-2l-9-20-6-14v-7z" fill="#9B856A"/>
<path transform="translate(800,714)" d="m0 0h6l1 3-9 24-4 14-1 6v14l3 16 4 5 11 5 16 3 2 1-1 5-4 6-1-2 2-4-3 1-4-2-3 1h-2v2l-6 3h-3l-3-10-5-5-4-6v-7l-2-1-1-17 1-3h-2v-19l1-1v-11l2-4v-5l-5 2 4-8 6-5z" fill="#C5B8A7"/>
<path transform="translate(410,504)" d="m0 0h1l1 22 1 35v88l-3 7-3 1-3-3v-2h-2v-18l3-16 1-2 1-19 1-48v-17l1-9v-15z" fill="#6C6257"/>
<path transform="translate(1410,1177)" d="m0 0 7 6 9 7 10 4h23l19 2 2 1-2 4h-2l-2 5-5 5-3 1v2l-7-2-10-4-9-3-10-2-6-3-5-5v-2l-3 1-3-1-2-8-1-6z" fill="#C6B9A8"/>
<path transform="translate(1101,1841)" d="m0 0h1v9l-5 21-6 16-9 14-11 8-20 10-13 9-8 8-8 11-5 8h-2l-6-10-1-6h9l8-8h2l1-3 6-5 8-6 7-3 16-9 4-4 5-2 5-6h2v-2h2l2-5 5-8 2-5 2-9 2-4 1-11z" fill="#71675B"/>
<path transform="translate(564,1477)" d="m0 0 3 1 2 12v16h-1l-1-14h-2l-1 3v2h-3l-1 7-5 15-6 5-4 5-7 10-6 7-9 7-6 8-1 2h-2l-2 5-16 5-2 4-3-5 1-5 8-6 13-8 13-10 9-8 7-10 12-23 7-17z" fill="#C6B9A9"/>
<path transform="translate(1618,1291)" d="m0 0h2l1 4v161l-4-1-5-7 1-8 2-3 1-9v-66l-2-9h-2l1-4 3-6v-24l1-20z" fill="#6C6358"/>
<path transform="translate(1440,1023)" d="m0 0h2l2 6v19l-4-1-2 4-2 3-3 3-3 6h-2l-1 4-5 4h-6l-4 3-6 1-13 4-8 6-4 2-2 5-9 12-5 5h-3l-1 4-1-4 7-13 9-11 9-8 17-9 26-9 4-5 4-12 3-18z" fill="#C6B9A8"/>
<path transform="translate(313,124)" d="m0 0 10 1h21l14 1h28l2 1-1 5-6 3h-45l-14 2-7 3-3 4v-16z" fill="#C6B9A8"/>
<path transform="translate(1273,1474)" d="m0 0 3 1-6 16-1 3-2 1-3 9-8 13-6 13h-2l-1 3-6-4-7-9v-3l13-10 4-6h2l1-4h2l2-4 5-7h2l2-5 4-6z" fill="#9A8469"/>
<path transform="translate(1200,1120)" d="m0 0 5 2 4 5 7 11-1 2-5-6-2-1-1 3-9 1v3l-5 5-9 15h-2l-2 5-6 5-3 7h-2l-1 4-4 1v2h-4l-2 7v5l-2-4 1-8 7-12 9-10 9-14 9-19 6-8z" fill="#C6B9A9"/>
<path transform="translate(1238,1189)" d="m0 0h2v6l-13 18-7 10-12 19-8 12-4-1-4-7-4-5-1-3 2-3h2l10-1v-2l5-3 10-13 3-6 2-1 6-11 6-7z" fill="#70665A"/>
<path transform="translate(307,414)" d="m0 0h2l1 11v106l-1 26-1 3h-2l-1-4-1-22v-33l1-46v-35z" fill="#6C6358"/>
<path transform="translate(392,135)" d="m0 0h6v3h2l2 18v5l-1 1h-83l-5-3-1-1 1-9 4-5 8-2 14-1h38l10-2zm1 5-6 4-5 1-52 1-10 2-4 3-1 5 3 4 25 1h50l5-3 1-2v-10l-3-6z" fill="#9A8469"/>
<path transform="translate(1747,1194)" d="m0 0h1v339h-1l-1-18-2-161v-54l1-54z" fill="#C9BCAC"/>
<path transform="translate(416,368)" d="m0 0 2 1-5 5v2l2 4v36h-1l-1-33h-7l-1 8h-1v-15l1-3-32 1 1 3-1 2 6-2 2 2v81h-1v-76l-5 2-4 3-4 1h-19v-1l20-3v-5h-3l-1-5 1-1-24-2h-42l-2-4 10 1 66 1h37z" fill="#A58F74"/>
<path transform="translate(1847,1643)" d="m0 0h2v7l-6 20-11 28-6 14-4 6h-1v-14l6-22 11-27 6-9z" fill="#9E886D"/>
<path transform="translate(1801,1759)" d="m0 0 2 1v18l-2 3-13 2-21 2h-14l-1-1v-6l6-3 5-2 20-1 8-1h4l2-6z" fill="#6E6559"/>
<path transform="translate(345,86)" d="m0 0h23l9 1 8 4 1 5-2 3-3 1h-39l-5-3v-3l2-3z" fill="#A27846"/>
<path transform="translate(337,176)" d="m0 0 34 1 32 2 4 2 1 4-6-2-17 1-13 1-19-2-11 1-10 1-17 3-5 3-4 2 6-8 6-6 8-2z" fill="#C6B9A8"/>
<path transform="translate(283,216)" d="m0 0 2 4 3 2v2h-2l-1 3-3 1v5l14 1 2 4-2-1h-17v18l-1 52-2-3v-28l-1-16-1-4h-3l-1 46-2-3v-48l2-15 3-6z" fill="#C6B9A8"/>
<path transform="translate(163,1575)" d="m0 0 2 2 11 28 12 36 7 23-1 3-8-23-4-6-2-1-2 5-2-3-5-17-3-7-3-23-3-3-3-1v-2l3-2z" fill="#9B856A"/>
<path transform="translate(358,51)" d="m0 0 4 2 2 5v3h2l1 2 9 4 5 3 7-1v6l-2 3-5 1-8-1-21-6-6-1-6 2-2-2h2v-2l6-4 6-8 3-3h2z" fill="#A27846"/>
<path transform="translate(392,147)" d="m0 0 4 1 1 5-3 4h-66l-7-2 1-3 6-2 18-1h35z" fill="#795830"/>
<path transform="translate(330,656)" d="m0 0 3 3 12 2 30-1 8 4 4 1v2h-28l-19 1-6-1-22 1-18 3 3-3 24-8 8-3z" fill="#C6B9A8"/>
<path transform="translate(284,739)" d="m0 0h9l10 2-4 2-1 5 2 2v18l-1 16-1 3h-2v2l-4-1-3-9-1-39z" fill="#BBA282"/>
<path transform="translate(1051,1495)" d="m0 0 5 1 2 3-1 7-10 13-8 4-4-1-4-4v-9l4-6h3l1-2z" fill="#9A8469"/>
<path transform="translate(1499,1843)" d="m0 0 4 1-4 12-7 8-16 24-10 16h-3l-1 3-2-4 4-10 4-5 3-6 5-7h2l1-5 4-4 6-12 3-1 2-4z" fill="#71675B"/>
<path transform="translate(745,1024)" d="m0 0h3l-1 6-6 10-10 13-9 15-6 11-2-2 2-3-1-3-3 1-1 2h-2l2-5 10-16 10-14 11-13z" fill="#C6B9A8"/>
<path transform="translate(421,85)" d="m0 0 5 2 3 7 1 17 1 9-4 2-6-2-4-6-2-9v-14h2l2-4z" fill="#795831"/>
<path transform="translate(271,255)" d="m0 0 4 1 1 4 1 26v18l1 10-2 8h-2v-2l-3-1-2-8 1-55z" fill="#BAA080"/>
<path transform="translate(1749,1062)" d="m0 0 4 1 8 11 7 12-1 2-4-4-7 1-2 3h-5l-1 17v34h-1l-1-12v-55z" fill="#C6BAA9"/>
<path transform="translate(1564,1589)" d="m0 0h1v63l2 1-1 7-1 3h-2l-1 8-3 3-4 7-8 12-3 5-7 13-6 10-3 1v5h-4l-1 5h-2l-2 5h-2l-1 3-8 1-2-1 1-3v2l4-1 2-4 7-8 16-20 13-21 8-13 5-14 1-5z" fill="#C7BAA9"/>
<path transform="translate(264,706)" d="m0 0 2 1-7 5-7 4-3 3v5l8 3 13 3 2 5v2h9l2-6 3 1 1 3-1 2h2v2l-16 1-10 3-4 3-2-3 1-2h-2l-2-6v-6l-5-1-5-3-1-6 8-6z" fill="#BAA282"/>
<path transform="translate(133,1532)" d="m0 0h6l7 8 2 7-1 1v6 3l-4-3v-6h-2l1-6-4-3h-3l3 10-4 1-3 3-6 3-8 8-5 7-1-4 5-9h2l3-10 3-4 3-5h2v-5z" fill="#A17846"/>
<path transform="translate(844,1495)" d="m0 0 6 1-1 8-7 11-6 8-5 2-5-8v-8l3-6 11-3 1-2z" fill="#9A8469"/>
<path transform="translate(328,94)" d="m0 0 2 4h-2l-2 4-6 5-1 7 1 1 33 1h38l5-2 2-2v6l-2 2h-77l-5-3-1-6 4-6h2l3-4h2l2-4z" fill="#6C6358"/>
<path transform="translate(307,593)" d="m0 0h2l1 12 1 30v15l-4 5-5-1-1-2v-8l3-21v-12l2-10-1-5z" fill="#6C6358"/>
<path transform="translate(332,620)" d="m0 0 2 1 2 5 1 3 3 1 1 5-4 8 1 3v6l4 3 12 1h22l-2 3-1 2-28 1-12-2-2-2 1-4 1-3v-12z" fill="#9A846A"/>
<path transform="translate(1430,1097)" d="m0 0 5 1 2 6v9l-2 5-5-1-12-6-10-3-2-1v-3l5-2 13-1z" fill="#71675B"/>
<path transform="translate(614,1074)" d="m0 0h3v2h-2l-2 9-9 17-4 8h-2l1 3-4 9-1 4h-2v4h-2l-1 7-4 1-1-3 2-9 5-11 3-6h2l1-6 4-11 4-2 1-6h2l1-4 3-3h2z" fill="#6C6358"/>
<path transform="translate(402,437)" d="m0 0h1l1 8v19l1 34v30l-1 72h-1l-2-87v-65z" fill="#BDA68A"/>
<path transform="translate(299,1371)" d="m0 0h1v65h-4l-1-3-2-1v-12l1-3-1-6v-8-4l1-3v-10l2-5 1-8z" fill="#9A8469"/>
<path transform="translate(789,726)" d="m0 0h2l1 5-3 8 2 1h-2l1 7-1 1v16h-3l-1-7-5 2v2h-2l-1 19-2-2v-13l4-21 6-16z" fill="#BBA282"/>
<path transform="translate(376,384)" d="m0 0h4v5l-5 2-4 5-11 2h-13l-6 1v2l-1 1 1 2-3 1 1 5-5-3v-9l8-7 3-1 22-1 7-3z" fill="#9B8469"/>
<path transform="translate(428,739)" d="m0 0h15v1l-15 2-3 1-1 28-2 9-4 1-2-3-1-16-1-3-1-16-1-3 4 2 3 3 6-5z" fill="#BBA282"/>
<path transform="translate(1618,1478)" d="m0 0h2l1 4v76l-1 9-3-3-1-14 1-65z" fill="#6C6358"/>
<path transform="translate(1388,1444)" d="m0 0 2 1 3 10 1 11-1 27 1 37-1 15v20l-1 11h-1l-2-107z" fill="#C7BAA9"/>
<path transform="translate(793,787)" d="m0 0 2 1 4 7 12 6 16 3 2 1-1 5-4 6-1-2 2-4-3 1-4-2-3 1h-2v2l-6 3h-3l-3-10-5-5-4-6v-6z" fill="#C6B9A8"/>
<path transform="translate(1406,1974)" d="m0 0 10 2 3 5h-4l2 7 9 11 4 5v2h2l7 16 3 3 6 12v2l3 1 3 6-4-2-11-16-13-20-10-15-9-13z" fill="#756858"/>
<path transform="translate(51,2024)" d="m0 0 3 1v2l-16 3-20 3v2l12 2v1h-10l-19-3-1-1v-6l9-1 34-2z" fill="#6E6559"/>
<path transform="translate(1623,1928)" d="m0 0h2l-1 5-11 15-11 16-5 10-2-4h-4l2-5 2-2 4-8 5-7 4-3v-2l4-1v-2l2-2 3-6h2z" fill="#756A5C"/>
<path transform="translate(307,372)" d="m0 0 4 1v4h-3l4 2v50h-1l-1-33-1-7h-4l-3 14-1 10-2 1v-12l1-21 1-3-1-5z" fill="#BCA486"/>
<path transform="translate(370,373)" d="m0 0 3 1 1 3-1 2 6-2 2 2v81h-1v-76l-5 2-4 3-4 1h-19v-1l20-3v-5h-3l-1-5z" fill="#AF987B"/>
<path transform="translate(783,757)" d="m0 0h2l1 2 1 21 1 4-2 5-6-1-4-8 1-17 1-2h2v-2z" fill="#9A8469"/>
<path transform="translate(110,1489)" d="m0 0 5 2 8 7 6 8h-7l-3 4-4 10h-1l-5-20v-10z" fill="#C6B9A8"/>
<path transform="translate(1424,1877)" d="m0 0 1 3-1 3h-2l-2 6h-2l-1 5-6 9-5 11-3 6-3 5h-2l-2 4h-3l-1 2v-2h-2l-1 3-3-1 12-16 8-12 13-18z" fill="#C6B9A8"/>
<path transform="translate(1308,1660)" d="m0 0h1l1 69v28l-2-2-1-32-1-5-1-9 1-10-1-6v-19l2-13z" fill="#6C6358"/>
<path transform="translate(1600,1887)" d="m0 0h2l4 5 1 5-5 12-3 1v3l-4 1-2-4v-13l3-8z" fill="#9A8469"/>
<path transform="translate(410,411)" d="m0 0h1l2 18v33l-2 7-2-2-2-14v-21l1-6z" fill="#6C6358"/>
<path transform="translate(561,1212)" d="m0 0 4 4-1 14-4 17-2 2-1 3-4-1-1-4 4-14 1-2v-8l2-8h2z" fill="#6D6458"/>
<path transform="translate(188,1658)" d="m0 0 4 1 4 10 6 34v3h-2l-2-7-1 3h-2l-4-22-1-2 2-1 1-5-3-5h-3l-1-6v-2z" fill="#746859"/>
<path transform="translate(313,115)" d="m0 0 6 4 76 1v2l-3 1h-66l-10-1-3-2z" fill="#9A8469"/>
<path transform="translate(443,726)" d="m0 0h15l14 1v1h-12l1 11-3 6-2 2h-3v-3h-2l-2-3-3-2h5l5-1-1-4-9-1h-5v-3l-3-2 5-1z" fill="#BAA385"/>
<path transform="translate(392,935)" d="m0 0h10l18 3 1 5-5 2-4-2h-22l-1-5z" fill="#6C6358"/>
<path transform="translate(632,1326)" d="m0 0h1v14l-2 16-2 5-5 3-4-2-1-3 1-2h2l1-5 3-5 2-13 2-4h2l-1-3z" fill="#71675B"/>
<path transform="translate(331,933)" d="m0 0 1 2h2l-2 5-5 3h-15l-9-3 2-1 2-4 8-1h12z" fill="#6C6358"/>
<path transform="translate(325,1445)" d="m0 0h1l2 95v18l-2 6h-1z" fill="#C6B9A8"/>
<path transform="translate(1400,1195)" d="m0 0 4 1-2 13-9 11h-2l-1 5-7 5h-2v2l-6 5-5 7-2-2 11-13 8-10 9-11 3-7z" fill="#C6B9A8"/>
<path transform="translate(1233,1717)" d="m0 0 7 2 1 5-3 7-4 4h-2v2l-3 1-2-3-1-11 3-5z" fill="#9A8469"/>
<path transform="translate(326,1587)" d="m0 0 2 4 1 7-1 75-1 28h-1l-1-102z" fill="#C6B9A8"/>
<path transform="translate(784,793)" d="m0 0 4 2 8 8 2 4v7l-3 2-6-3-7-12 1-7z" fill="#9C866B"/>
<path transform="translate(350,352)" d="m0 0h64v2l-3 1-11 1h-68l-1-2 19-1z" fill="#6F604D"/>
<path transform="translate(1093,1713)" d="m0 0 3 1-1 9-3 10-3 3-3 5-4-1-1-3 2-7 2-5 1-3h2l1-4 4-2z" fill="#9A8469"/>
<path transform="translate(1618,1104)" d="m0 0h2l1 2v25l-1 8-3 2-3-8-2-4v-6l3-2 2-14z" fill="#6C6358"/>
<path transform="translate(536,1420)" d="m0 0 17 2 5 3-3 3-2 1h-17l-6-2 1-5z" fill="#6C6358"/>
<path transform="translate(1564,1589)" d="m0 0h1v63l2 1-1 7-1 3h-2l-1 8-3 3-4 7-8 12-3 5h-3l10-16 7-12 5-17z" fill="#C6B9A8"/>
<path transform="translate(887,1714)" d="m0 0h2l1 4-3 6-2 8-7 9-3 1-1-5 5-14 4-6z" fill="#9A8469"/>
<path transform="translate(1847,1643)" d="m0 0h2v7l-6 20-3 8-1-4 3-10v-6h-2l-1 4h-2l-2 6-4 9-1-3 10-23z" fill="#BCA588"/>
<path transform="translate(339,648)" d="m0 0 9 4h26l6-2v5l-1 1-14 1h-11l-12-1-5-4z" fill="#6C6358"/>
<path transform="translate(427,339)" d="m0 0h5l-1 7-4 10-5 7-2-2 3-5 1-6-7 3h-8l2-2 7-4 7-7z" fill="#706557"/>
<path transform="translate(165,1909)" d="m0 0h2l1 2-1 9-2 6-4-1v2l-5 1-2-5v-4l3-3 4-5z" fill="#9A8469"/>
<path transform="translate(1375,1256)" d="m0 0 2 1-7 10-5 10-4 2-3-5 2-9 3-5 4 2z" fill="#9E896E"/>
<path transform="translate(413,589)" d="m0 0 2 4-1 61-2 9h-6l-4-8v-3h2l4 4h2l2-7v-31z" fill="#AB957A"/>
<path transform="translate(1391,1577)" d="m0 0h1l2 28v36l-1 9-2 2z" fill="#C6B9A8"/>
<path transform="translate(472,1714)" d="m0 0 3 1-1 5-5 13-3 6h-4v-6l3-9 4-8z" fill="#9A8469"/>
<path transform="translate(680,1711)" d="m0 0h2v7l-3 5-2 7-5 10h-4l1-5 4-12 4-8z" fill="#9A8469"/>
<path transform="translate(255,771)" d="m0 0h3l2 6v13l-2 8 2 1-4 1 1-6h-2l-2-5v-9z" fill="#BAA07F"/>
<path transform="translate(950,1885)" d="m0 0h7l1 6 1 11-7-3-5-5v-6h2z" fill="#70665A"/>
<path transform="translate(379,1512)" d="m0 0 2 1v53l-2 1-2-8v-8l1-7z" fill="#6C6358"/>
<path transform="translate(1591,1528)" d="m0 0 4 1 1 2v10l-3 4-6-2-2-3 1-7z" fill="#9A8469"/>
<path transform="translate(613,1718)" d="m0 0 6 2 1 5-4 6-7 4-2-6 1-7z" fill="#9A8469"/>
<path transform="translate(405,373)" d="m0 0 7 1 3 6v36h-1l-1-33h-7l-1 8h-1v-15z" fill="#BCA588"/>
<path transform="translate(371,38)" d="m0 0 5 5 10 9 5 6-3 1-9-4-2-3-4-1-3-8z" fill="#BAA080"/>
<path transform="translate(135,1587)" d="m0 0h2l1 11-3 5-3 1-4-1v-3h-2l1-5 4-5h2v-2z" fill="#9A8469"/>
<path transform="translate(637,1505)" d="m0 0h3l-1 6-4 6-4 5-3 1-3-3 2-6 7-8z" fill="#9A8469"/>
<path transform="translate(629,1499)" d="m0 0v3l-9 9-4 2-1 2h-2l-1 4-5 6h-2l-1 3-3 3v3l-3 1-4 7-1-2 6-11 7-9 8-9 14-11z" fill="#C6B9A8"/>
<path transform="translate(1467,1689)" d="m0 0h3l3 8-1 5-3 5-5 1-2-7z" fill="#9A8469"/>
<path transform="translate(623,1065)" d="m0 0 1 3-9 16-13 28-3 7-3-3 2-4 1-4 3-3 9-19 4-10h2l1-4v-3l3 1z" fill="#A08A70"/>
<path transform="translate(851,928)" d="m0 0 7 1 9 3 11 5 7 3 2 2 10 4 5 4 7 4 4 5-5-2-9-6-27-14-15-6-6-2z" fill="#A28C71"/>
<path transform="translate(417,124)" d="m0 0 4 4 4 6v2h4l-1 5-4 4-5-2-1-3z" fill="#C6B9A8"/>
<path transform="translate(349,1530)" d="m0 0h3l1 2v7l-2 3h-2l-1 3h-4l-1-2v-9l3-3z" fill="#9A8469"/>
<path transform="translate(1618,1230)" d="m0 0 3 1v27h-4v-8l-1-3v-14l2-1z" fill="#6C6358"/>
<path transform="translate(333,651)" d="m0 0 2 4v2l5 1h33v3l-28 1-12-2-2-2 1-4z" fill="#BAA07F"/>
<path transform="translate(1065,1783)" d="m0 0 5 1-1 10-3 5h-2l-1 3-3-1 1-10 3-7z" fill="#9A8469"/>
<path transform="translate(332,620)" d="m0 0 2 1 2 5 1 3 3 1 1 5-5 10-2 3z" fill="#A08A6F"/>
<path transform="translate(158,1595)" d="m0 0 4 1 2 11-1 2h-3v2l-4-1-2-3 1-8z" fill="#9A8469"/>
<path transform="translate(1801,1636)" d="m0 0h1v38l-4-1v-2l-3-1v-6l4-4 1-11z" fill="#6C6358"/>
<path transform="translate(816,859)" d="m0 0 5 1 1 7-1 11h-4l-3-14z" fill="#9A8469"/>
<path transform="translate(1065,1291)" d="m0 0 2 1 5 38 1 2v8l1 5v12l-2-3-6-52z" fill="#C6B9A8"/>
<path transform="translate(349,1212)" d="m0 0 2 1 2 6-2 7-6 2-2-7 3-7z" fill="#9A8469"/>
<path transform="translate(433,238)" d="m0 0 2 2 1 17v29l-1 18h-1l-1-60z" fill="#C6B9A8"/>
<path transform="translate(1563,1936)" d="m0 0 3 3-1 9-4 11-12 12-2-1 7-9 6-10z" fill="#C6B9A8"/>
<path transform="translate(276,881)" d="m0 0 5 2 2 4 2 1v6l1 1v9l-4-4-4-8-2-7z" fill="#795830"/>
<path transform="translate(1360,1256)" d="m0 0h3l-1 7-3 9 2 5h3l-1 6-3 5-2-1-1-3v-15z" fill="#BBA385"/>
<path transform="translate(148,1542)" d="m0 0 2 2 10 21 3 7-1 3-6-13-3-6-3-1h-3l-1-1v-6l1-4z" fill="#A08A6E"/>
<path transform="translate(974,1905)" d="m0 0h3l3 5 2 7-3 1-11-7v-4h6z" fill="#6F6559"/>
<path transform="translate(406,1719)" d="m0 0 4 2 1 4-1 3-7 6h-2l-1-8z" fill="#9A8469"/>
<path transform="translate(349,576)" d="m0 0 5 2v7l-2 5-4 1-3-5 1-4z" fill="#795830"/>
<path transform="translate(542,1353)" d="m0 0 2 2v16l-2 4h-2l-2-6 1-10z" fill="#6C6358"/>
<path transform="translate(970,1884)" d="m0 0 4 1-1 8-3 5-5-2v-6z" fill="#BAA07F"/>
<path transform="translate(1502,2039)" d="m0 0h6l2 4 2 2-3 1v2h-10l-1-4z" fill="#7E5E37"/>
<path transform="translate(48,1583)" d="m0 0 4 1 3 4 1 10-5-1-2-3z" fill="#A48E74"/>
<path transform="translate(971,1530)" d="m0 0 3 1 1 7-3 5h-6l1-8 2-4z" fill="#9A8469"/>
<path transform="translate(414,117)" d="m0 0 10 10v2l7 2-1 5h-5l-7-10v-2l-3-1z" fill="#9D876D"/>
<path transform="translate(1443,1976)" d="m0 0h8l1 4-8 6-2-4h-2v-4z" fill="#795830"/>
<path transform="translate(311,635)" d="m0 0h1v23l-5 2h-6l-2-4v-16h1l1 14 1 2 6-1 2-1z" fill="#C0AD94"/>
<path transform="translate(391,73)" d="m0 0 4 1h3l1 30-1 7h-1l-2-32-4-2-2 1 1-4z" fill="#6D6358"/>
<path transform="translate(1475,1977)" d="m0 0 4 2 7 7 4 9 3 10h-2l-2-5-7-13v-3l-4-1z" fill="#BBA282"/>
<path transform="translate(400,143)" d="m0 0h1l1 18-1 1h-33v-1l9-1h16l6-4z" fill="#A78F72"/>
<path transform="translate(1042,1833)" d="m0 0 2 1 1 5-2 5-5 5-7 6-6 3h-6l-1-2 10-2 7-5 6-12z" fill="#C6B9A8"/>
<path transform="translate(977,1755)" d="m0 0 2 2 1 11-3 5h-2l-1-5v-9l1-3z" fill="#6C6358"/>
<path transform="translate(188,1658)" d="m0 0 4 1 4 10v6l-4-5-2-3h-3l-1-6v-2z" fill="#706252"/>
<path transform="translate(370,373)" d="m0 0 3 1 1 3-1 2 3-1 2 2-6 2-3 2-1-3h-3l-1-5z" fill="#C4B5A1"/>
<path transform="translate(1101,1841)" d="m0 0h1v9l-3 11-2 1-1-4 1-9z" fill="#74695C"/>
<path transform="translate(284,739)" d="m0 0h9l10 2-4 2-2 4v-2l-8 2-1-7z" fill="#BDA68A"/>
<path transform="translate(53 2e3)" d="m0 0h3v2l-11 5-13 5-13 2 1-2 15-4z" fill="#C5B8A7"/>
<path transform="translate(377,389)" d="m0 0h3v8l-5 1-5 4-1-4 3-2v-3h2l1-3z" fill="#6C6358"/>
<path transform="translate(971,1848)" d="m0 0h2l1 2v9l-5 1-2-6z" fill="#9A8469"/>
<path transform="translate(256,832)" d="m0 0h2l4 4 1 5-2 3h-4l-2-7z" fill="#BBA283"/>
<path transform="translate(1445,1396)" d="m0 0 2 2v16l-2 4-3-12z" fill="#6C6358"/>
<path transform="translate(761,1532)" d="m0 0h5l2 4h-2v3h-2l-1 2h-3l-2-4z" fill="#9A8469"/>
<path transform="translate(134,1719)" d="m0 0 2 3 4 15 2 4-1 2v7l-2-1-5-26z" fill="#A18A6E"/>
<path transform="translate(417,124)" d="m0 0 4 4 4 6v2h4l-1 5-4-1-3-4-2-5v-3h-2z" fill="#BBA282"/>
<path transform="translate(580,1564)" d="m0 0 2 1-1 6-3 5-5-1-2-4 6-2z" fill="#C6B9A8"/>
<path transform="translate(66,2020)" d="m0 0h12l-4 2-15 4-3-1 3-1v-2z" fill="#6F5F4C"/>
<path transform="translate(1590,1969)" d="m0 0 5 1 1 5-3 6-1-3 1-3h-8l1-3z" fill="#735F46"/>
<path transform="translate(1070,1330)" d="m0 0 3 1v9l1 5v12l-2-3-2-19z" fill="#C7BAA9"/>
<path transform="translate(359,146)" d="m0 0h5v4h-23v-2h18z" fill="#6C6358"/>
<path transform="translate(85,1631)" d="m0 0h6l2 1v2l-7 2h-2l-1 2-4-2 1-3 3-1 2 1z" fill="#73624C"/>
<path transform="translate(307,563)" d="m0 0 2 1v11l-1 4h-2l-1-10 1-5z" fill="#6C6358"/>
<path transform="translate(311,158)" d="m0 0 4 2 3 1 16 1v1l-13 1h-10z" fill="#BFAC93"/>
<path transform="translate(307,372)" d="m0 0 4 1v4h-3l-1 2h-5l-2-6z" fill="#C3B39E"/>
<path transform="translate(416,82)" d="m0 0h5l3 4-4 1-3 4h-3l1-7z" fill="#7F7262"/>
<path transform="translate(412,1421)" d="m0 0h1v15l1 7-3 7h-1z" fill="#BFAB91"/>
<path transform="translate(149,1874)" d="m0 0 1 4-1 7-3 9-2 1 2-12 2-8z" fill="#A07A4E"/>
<path transform="translate(283,731)" d="m0 0 3 1 1 3-1 2h2v2h-15v-1l8-1z" fill="#BAA07F"/>
<path transform="translate(410,504)" d="m0 0h1l1 22-2 2-1-5v-15z" fill="#6C6358"/>
<path transform="translate(1494,2007)" d="m0 0 2 2 5 14v2l3 1v2l-5-2-5-15z" fill="#BCA486"/>
<path transform="translate(110,1665)" d="m0 0 4 2v2l5-2v11l-3-3z" fill="#7A6D5E"/>
<path transform="translate(603,1104)" d="m0 0 1 3-5 12-3-3 2-4 1-4z" fill="#9F8A70"/>
<path transform="translate(1360,1256)" d="m0 0h3l-1 7-3 9h-2l2-13z" fill="#BDA78B"/>
<path transform="translate(612,1085)" d="m0 0 1 3-8 17-2-1 2-5z" fill="#A48F76"/>
<path transform="translate(403,655)" d="m0 0 3 3 5-1 2-2-1 8h-6l-3-5z" fill="#C2B19C"/>
<path transform="translate(404,922)" d="m0 0 4 2v4l-6 1-1-5z" fill="#BAA07F"/>
<path transform="translate(187,1645)" d="m0 0 3 2 5 17-1 3-7-19z" fill="#A48E73"/>
<path transform="translate(1093,1320)" d="m0 0h3l1 2v7h-4z" fill="#776C5E"/>
<path transform="translate(412,649)" d="m0 0h1v6l-4 4-4-1-1-3h-2v-3h2l4 4h2z" fill="#9D876D"/>
<path transform="translate(416,368)" d="m0 0 2 1-5 5-16-2v-1h13z" fill="#A28C71"/>
<path transform="translate(1780,1252)" d="m0 0h4l-1 5-3 3h-2l-1-4z" fill="#6C6358"/>
<path transform="translate(1480,1782)" d="m0 0 4 1-1 4h-2v2l-4-1 1-5z" fill="#9A8469"/>
<path transform="translate(1821,1704)" d="m0 0h1v6l5-2-2 5-3 5h-1z" fill="#BDA689"/>
<path transform="translate(440,314)" d="m0 0h1v6l-2 3h-2l-1-2v-6z" fill="#9A8469"/>
<path transform="translate(996,1927)" d="m0 0h2v2l5 1 2 5-7-2-1-4-2-1z" fill="#706659"/>
<path transform="translate(301,1435)" d="m0 0h1v26h-2l-1-4h2z" fill="#C6B9A8"/>
<path transform="translate(563,1226)" d="m0 0 1 4-3 13h-1l-1-8 2-4-1-3z" fill="#A38E73"/>
<path transform="translate(410,729)" d="m0 0 7 1-2 4-3 1-4-3h2z" fill="#BAA07F"/>
<path transform="translate(400,143)" d="m0 0h1l1 18-1 1h-5l3-4z" fill="#BFAB92"/>
<path transform="translate(278,878)" d="m0 0h6l4 5v9l-2-4-1-6-7-3z" fill="#A27846"/>
<path transform="translate(405,373)" d="m0 0 7 1 1 3-8 2-1-3z" fill="#C0AD95"/>
<path transform="translate(1098,1362)" d="m0 0h2l1 2v12l-2-2v-5l-2-1z" fill="#867867"/>
<path transform="translate(406,639)" d="m0 0h4l-1 8h-3z" fill="#795830"/>
<path transform="translate(297,369)" d="m0 0 10 1v3h-8z" fill="#9C856A"/>
<path transform="translate(379,1031)" d="m0 0h4v6l-4 1-2-4z" fill="#6C6358"/>
<path transform="translate(438,728)" d="m0 0h9l-1 5h-5v-3z" fill="#BCA688"/>
<path transform="translate(310,650)" d="m0 0 1 4-5 3-5-1-1-4h2l1 2 5-1z" fill="#9A8469"/>
<path transform="translate(400,633)" d="m0 0 3 3-1 14h-1l-1-6z" fill="#AD9A83"/>
<path transform="translate(311,314)" d="m0 0 4 2v5l-3 2-3-1 2-5z" fill="#C6B9A8"/>
<path transform="translate(1108,1779)" d="m0 0h1v6l-3 3-2-1 1-4z" fill="#756A5B"/>
<path transform="translate(1084,1767)" d="m0 0 3 1-1 5-2 1-2-1v-5z" fill="#9A8469"/>
<path transform="translate(1104,1625)" d="m0 0h2v11l-3-3-1-5z" fill="#6C6358"/>
<path transform="translate(851,928)" d="m0 0 7 1 9 3v3l-16-6z" fill="#A28D73"/>
<path transform="translate(289,742)" d="m0 0 9 1-1 4v-2l-8 2z" fill="#C6B9A8"/>
<path transform="translate(296,664)" d="m0 0 2 1h-3z" fill="#C6B9A8"/>
</svg>
